<?xml version="1.0" encoding="UTF-8"?><svg id="Layer_2" xmlns="http://www.w3.org/2000/svg" viewBox="0 0 1000 1000.0006"><g id="Components"><g id="_6a037c55-98a9-4279-821e-dfc619477a47_10"><path d="M499.9996,0C100.0001,0,0,100.0001,0,500.0004s100.0001,500.0003,499.9996,500.0003,500.0004-100.0001,500.0004-500.0003S899.9999,0,499.9996,0ZM567.3507,447.6754c0,16.2823-7.9797,31.5311-21.3581,40.8127l-261.9203,182.8545c-6.0488,4.2229-6.1913,13.1276-.2808,17.5418l29.431,21.9801c6.2789,4.6893,14.8758,4.7572,21.228.1676l129.7765-93.7678c5.9666-4.3111,13.1405-6.6317,20.5018-6.6317h74.9085c4.2601,0,7.7136,3.4535,7.7136,7.7137v163.113c0,4.2598-3.4531,7.7129-7.7129,7.7129h-218.7629c-15.7636,0-31.1502-4.8217-44.0946-13.8183l-13.4146-9.3233c-.8425-.5857-1.5516-1.2712-2.1694-2.011l-72.8201-52.9608c-1.8662-1.2569-3.5155-2.9094-4.8116-4.9283-4.8574-7.563-7.5467-16.4547-7.551-25.6989l-.0442-107.4432c-.0057-12.6518,6.1934-24.5019,16.5886-31.714l329.0845-228.3084c10.8588-7.5331,25.7081.2383,25.7081,13.454v121.2554ZM804.0305,777.9082c0,6.1735-5.0047,11.1782-11.1782,11.1782h-33.047c-9.0227,0-17.8296-2.7597-25.2387-7.9089l-71.2002-49.4823c-23.7165-16.4823-37.8589-43.5333-37.8589-72.4146v-382.2414c0-7.8126-6.3334-14.146-14.146-14.146h-97.7783c-7.2631,0-14.3526,2.2216-20.3168,6.3666l-155.2933,107.9255c-12.8616,8.9384-29.9248,8.9384-42.7862,0l-90.1631-62.6609c-5.6013-3.8928-8.9415-10.2818-8.9415-17.1031v-68.4803c0-10.0032,8.1092-18.1125,18.1124-18.1125h446.3606c14.8747,0,29.3937,4.5498,41.6084,13.0385l64.0081,44.484c23.7165,16.4823,37.8589,43.5333,37.8589,72.4147v437.1425Z" style="fill:#40b5b5; strokeWidth:0px;"/></g></g></svg>